<?xml version="1.0" encoding="utf-8"?>
<!-- Generator: Adobe Illustrator 22.1.0, SVG Export Plug-In . SVG Version: 6.00 Build 0)  -->
<svg fill="currentColor" version="1.1" id="Calque_1" xmlns="http://www.w3.org/2000/svg" xmlns:xlink="http://www.w3.org/1999/xlink" x="0px" y="0px"
	 viewBox="0 0 24 24" style="enable-background:new 0 0 24 24;" xml:space="preserve">
<style type="text/css">
	.st0{fill-opacity:0;}
</style>
<g>
	<g>
		<rect class="st0" width="24" height="24"/>
		<path d="M17,18c-0.6,0-1,0.4-1,1s0.4,1,1,1h2c0.6,0,1-0.4,1-1V5c0-0.6-0.4-1-1-1h-2c-0.6,0-1,0.4-1,1s0.4,1,1,1h1v12H17z"/>
		<path d="M3.2,12.6l2.8,4c0.3,0.4,0.9,0.6,1.4,0.2c0.5-0.3,0.6-0.9,0.2-1.4c0,0,0,0,0,0L5.9,13H14c0.6,0,1-0.4,1-1s-0.4-1-1-1H6
			l1.8-2.4C8.1,8.2,8,7.5,7.6,7.2C7.4,7.1,7.2,7,7,7C6.7,7,6.4,7.1,6.2,7.4l-3,4C2.9,11.7,2.9,12.2,3.2,12.6z"/>
	</g>
</g>
</svg>
